<svg width="16" height="16" viewBox="0 0 16 16" fill="none" xmlns="http://www.w3.org/2000/svg">
<path d="M7.15522 0.336126C7.62924 -0.112042 8.37074 -0.112042 8.84477 0.336126L14.8005 5.96708C15.1691 6.31549 15.3779 6.80024 15.3779 7.30736V14.1555C15.3779 15.1742 14.552 16 13.5334 16H11.0741C10.0554 16 9.22964 15.1742 9.22964 14.1555V11.0814C9.22964 10.7419 8.95437 10.4666 8.61481 10.4666H7.38517C7.04562 10.4666 6.77035 10.7419 6.77035 11.0814V14.1555C6.77035 15.1742 5.94456 16 4.92588 16H2.4666C1.44792 16 0.622131 15.1742 0.622131 14.1555V7.30736C0.622131 6.80024 0.830925 6.31549 1.19942 5.96708L7.15522 0.336126ZM7.99999 1.22965L2.0442 6.8606C1.92137 6.97673 1.85177 7.13832 1.85177 7.30736V14.1555C1.85177 14.495 2.12704 14.7704 2.4666 14.7704H4.92588C5.26544 14.7704 5.54071 14.495 5.54071 14.1555V11.0814C5.54071 10.0628 6.3665 9.237 7.38517 9.237H8.61481C9.63349 9.237 10.4593 10.0628 10.4593 11.0814V14.1555C10.4593 14.495 10.7346 14.7704 11.0741 14.7704H13.5334C13.8729 14.7704 14.1482 14.495 14.1482 14.1555V7.30736C14.1482 7.13832 14.0786 6.97673 13.9558 6.8606L7.99999 1.22965Z" fill="#fff"/>
</svg>
