<svg width="19" height="18" viewBox="0 0 19 18" fill="none" xmlns="http://www.w3.org/2000/svg">
<path fill-rule="evenodd" clip-rule="evenodd" d="M0 5.93354C0 2.5812 2.57221 0 5.59143 0C7.14777 0 8.51726 0.834379 9.5 1.914C10.4827 0.834379 11.8522 0 13.4086 0C16.4278 0 19 2.5812 19 5.93354C19 8.22993 18.1435 10.2494 16.9569 11.9564C15.7723 13.6605 14.2228 15.1067 12.7392 16.2819C12.1725 16.7308 11.5993 17.1448 11.0746 17.4503C10.5819 17.7372 10.0154 18 9.5 18C8.98456 18 8.41808 17.7372 7.92542 17.4503C7.40075 17.1448 6.82747 16.7308 6.26081 16.2819C4.7772 15.1067 3.22769 13.6605 2.04312 11.9564C0.856499 10.2494 0 8.22993 0 5.93354ZM5.59143 1.86207C3.33396 1.86207 1.62857 3.76026 1.62857 5.93354C1.62857 7.67581 2.27543 9.29793 3.31804 10.7978C4.36271 12.3006 5.76832 13.6265 7.18824 14.7513C7.72553 15.1769 8.23161 15.539 8.66449 15.7911C9.12939 16.0618 9.39866 16.1379 9.5 16.1379C9.60134 16.1379 9.87061 16.0618 10.3355 15.7911C10.7684 15.539 11.2745 15.1769 11.8118 14.7513C13.2317 13.6265 14.6373 12.3006 15.682 10.7978C16.7246 9.29793 17.3714 7.67581 17.3714 5.93354C17.3714 3.76026 15.666 1.86207 13.4086 1.86207C12.1121 1.86207 10.9014 2.7477 10.1455 3.87176C9.99139 4.10097 9.75287 4.23529 9.5 4.23529C9.24713 4.23529 9.00861 4.10097 8.85447 3.87176C8.09856 2.7477 6.88794 1.86207 5.59143 1.86207Z" fill="#000"/>
</svg>
