<svg width="22" height="23" viewBox="0 0 22 23" fill="none" xmlns="http://www.w3.org/2000/svg">
    <path fill-rule="evenodd" clip-rule="evenodd" d="M14.8399 11.4744C14.8399 12.5087 14.429 13.5006 13.6977 14.232C12.9663 14.9633 11.9744 15.3742 10.9401 15.3742C9.90584 15.3742 8.91392 14.9633 8.18258 14.232C7.45123 13.5006 7.04036 12.5087 7.04036 11.4744C7.04036 10.4401 7.45123 9.44823 8.18258 8.71688C8.91392 7.98554 9.90584 7.57467 10.9401 7.57467C11.9744 7.57467 12.9663 7.98554 13.6977 8.71688C14.429 9.44823 14.8399 10.4401 14.8399 11.4744ZM13.3775 11.4744C13.3775 12.1209 13.1207 12.7408 12.6636 13.1979C12.2065 13.655 11.5865 13.9118 10.9401 13.9118C10.2937 13.9118 9.67375 13.655 9.21666 13.1979C8.75956 12.7408 8.50277 12.1209 8.50277 11.4744C8.50277 10.828 8.75956 10.2081 9.21666 9.75096C9.67375 9.29387 10.2937 9.03708 10.9401 9.03708C11.5865 9.03708 12.2065 9.29387 12.6636 9.75096C13.1207 10.2081 13.3775 10.828 13.3775 11.4744Z" fill="white"/>
    <path fill-rule="evenodd" clip-rule="evenodd" d="M10.9401 0.750094C10.6788 0.750094 10.4195 0.759843 10.1631 0.777392C9.41921 0.831014 8.8518 1.37893 8.68898 2.04871L8.3458 3.46238C8.32631 3.53842 8.25806 3.63007 8.12644 3.67686C7.88539 3.76423 7.64855 3.86281 7.41669 3.97227C7.28994 4.03077 7.17685 4.01517 7.10958 3.97422L5.86751 3.21767C5.27864 2.85889 4.49089 2.87254 3.92738 3.36098C3.53448 3.70026 3.16692 4.06879 2.82667 4.46072C2.3392 5.02521 2.32458 5.81296 2.68335 6.40085L3.43991 7.64389C3.48086 7.71116 3.49743 7.82426 3.43796 7.951C3.32876 8.18206 3.2303 8.41897 3.14353 8.66076C3.09478 8.79237 3.00411 8.86159 2.92806 8.88012L1.5144 9.2233C0.844618 9.38611 0.296702 9.95353 0.24308 10.6974C0.206001 11.2148 0.206001 11.7341 0.24308 12.2515C0.296702 12.9953 0.844618 13.5628 1.5144 13.7256L2.92806 14.0687C3.00411 14.0882 3.09575 14.1565 3.14255 14.2881C3.2303 14.5299 3.32876 14.7668 3.43796 14.9988C3.49645 15.1246 3.48086 15.2377 3.43991 15.305L2.68335 16.547C2.32458 17.1359 2.33823 17.9237 2.82667 18.4872C3.16595 18.8801 3.53448 19.2476 3.9264 19.5879C4.49089 20.0754 5.27864 20.09 5.86653 19.7312L7.10958 18.9746C7.17685 18.9337 7.28994 18.9171 7.41669 18.9766C7.64775 19.0858 7.88466 19.1843 8.12644 19.271C8.25806 19.3198 8.32728 19.4104 8.3458 19.4865L8.68898 20.9002C8.8518 21.5699 9.41921 22.1179 10.1631 22.1705C10.6804 22.2077 11.1998 22.2077 11.7171 22.1705C12.461 22.1179 13.0284 21.5699 13.1913 20.9002L13.5344 19.4865C13.5539 19.4104 13.6222 19.3188 13.7538 19.272C13.9956 19.1843 14.2325 19.0858 14.4645 18.9766C14.5903 18.9181 14.7034 18.9337 14.7707 18.9746L16.0127 19.7312C16.6016 20.09 17.3893 20.0763 17.9529 19.5879C18.3458 19.2486 18.7133 18.8801 19.0536 18.4881C19.541 17.9237 19.5557 17.1359 19.1969 16.548L18.4403 15.305C18.3994 15.2377 18.3828 15.1246 18.4423 14.9979C18.5515 14.7668 18.6499 14.5299 18.7367 14.2881C18.7855 14.1565 18.8761 14.0873 18.9522 14.0687L20.3658 13.7256C21.0356 13.5628 21.5835 12.9953 21.6362 12.2515C21.6733 11.7341 21.6733 11.2148 21.6362 10.6974C21.5835 9.95353 21.0356 9.38611 20.3658 9.2233L18.9522 8.88012C18.8761 8.86062 18.7845 8.79237 18.7377 8.66076C18.6503 8.41971 18.5517 8.18287 18.4423 7.951C18.3838 7.82426 18.3994 7.71116 18.4403 7.64389L19.1969 6.40182C19.5557 5.81296 19.542 5.02521 19.0536 4.46169C18.7143 4.06879 18.3458 3.70124 17.9538 3.36098C17.3893 2.87351 16.6016 2.85889 16.0137 3.21767L14.7707 3.97422C14.7034 4.01517 14.5903 4.03174 14.4636 3.97227C14.2317 3.86316 13.9948 3.76491 13.7538 3.67784C13.6222 3.62909 13.553 3.53842 13.5344 3.46238L13.1913 2.04871C13.0284 1.37893 12.461 0.831014 11.7171 0.777392C11.4585 0.759029 11.1994 0.749924 10.9401 0.750094ZM10.2674 2.23688C10.7153 2.20476 11.1649 2.20476 11.6128 2.23688C11.6664 2.24078 11.7444 2.28562 11.7708 2.39287L12.113 3.80653C12.2621 4.41879 12.7233 4.85947 13.2566 5.0525C13.4564 5.12465 13.6514 5.20557 13.8415 5.29526C14.1072 5.42375 14.4006 5.48441 14.6954 5.47182C14.9902 5.45923 15.2774 5.37379 15.5311 5.22312L16.7742 4.46656C16.8687 4.40807 16.9555 4.43147 16.9964 4.46656C17.3357 4.761 17.6536 5.07883 17.948 5.41811C17.9831 5.45905 18.0065 5.54485 17.948 5.64039L17.1914 6.88247C17.0406 7.13633 16.9551 7.42363 16.9425 7.71865C16.9299 8.01368 16.9906 8.30722 17.1193 8.57301C17.209 8.76312 17.2899 8.95811 17.3611 9.15798C17.5541 9.69127 17.9967 10.1524 18.607 10.3006L20.0207 10.6448C20.1289 10.6701 20.1738 10.7481 20.1777 10.8017C20.2098 11.2496 20.2098 11.6992 20.1777 12.1471C20.1738 12.2008 20.1289 12.2788 20.0217 12.3051L18.608 12.6473C18.3221 12.7202 18.0586 12.8628 17.8412 13.0624C17.6238 13.2619 17.4592 13.5122 17.362 13.7909C17.29 13.9896 17.2087 14.1848 17.1183 14.3759C16.99 14.6416 16.9295 14.935 16.9422 15.2298C16.955 15.5247 17.0406 15.8118 17.1914 16.0654L17.948 17.3085C18.0065 17.403 17.9831 17.4898 17.948 17.5308C17.6542 17.8705 17.3362 18.1885 16.9964 18.4823C16.9555 18.5174 16.8697 18.5408 16.7742 18.4823L15.5311 17.7257C15.2774 17.5751 14.9902 17.4896 14.6954 17.477C14.4006 17.4645 14.1072 17.5251 13.8415 17.6536C13.6504 17.7433 13.4552 17.824 13.2566 17.8954C12.9781 17.9926 12.728 18.1573 12.5286 18.3747C12.3292 18.5921 12.1868 18.8555 12.1139 19.1414L11.7698 20.555C11.7444 20.6632 11.6664 20.7081 11.6128 20.712C11.1649 20.7441 10.7153 20.7441 10.2674 20.712C10.2138 20.7081 10.1358 20.6632 10.1095 20.556L9.76727 19.1423C9.69435 18.8564 9.55174 18.5929 9.35219 18.3755C9.15263 18.1581 8.90234 17.9935 8.62366 17.8964C8.42497 17.8243 8.22977 17.743 8.0387 17.6526C7.77283 17.5241 7.47924 17.4635 7.18422 17.4763C6.88919 17.489 6.60193 17.5748 6.34815 17.7257L5.10608 18.4823C5.01151 18.5408 4.92474 18.5174 4.88379 18.4823C4.5441 18.1885 4.22609 17.8705 3.93225 17.5308C3.89715 17.4898 3.87376 17.404 3.93225 17.3085L4.6888 16.0654C4.83947 15.8117 4.92492 15.5246 4.93751 15.2297C4.9501 14.9349 4.88944 14.6415 4.76095 14.3759C4.67095 14.1848 4.58995 13.9896 4.51819 13.7909C4.42104 13.5125 4.25651 13.2625 4.03928 13.0631C3.82205 12.8638 3.55887 12.7212 3.27319 12.6483L1.85953 12.3041C1.75131 12.2788 1.70646 12.2008 1.70256 12.1471C1.67045 11.6992 1.67045 11.2496 1.70256 10.8017C1.70646 10.7481 1.75131 10.6701 1.85856 10.6438L3.27222 10.3016C3.55818 10.2287 3.82163 10.0861 4.03905 9.8865C4.25647 9.68695 4.42108 9.43665 4.51819 9.15798C4.58995 8.95931 4.67096 8.76411 4.76095 8.57301C4.88961 8.30722 4.95036 8.01368 4.93777 7.71865C4.92518 7.42363 4.83964 7.13633 4.6888 6.88247L3.93225 5.64039C3.87376 5.54582 3.89715 5.45905 3.93225 5.41811C4.22668 5.07883 4.54451 4.761 4.88379 4.46656C4.92474 4.43147 5.01054 4.40807 5.10608 4.46656L6.34815 5.22312C6.60202 5.37395 6.88932 5.4595 7.18434 5.47209C7.47936 5.48468 7.77291 5.42392 8.0387 5.29526C8.2298 5.20527 8.425 5.12426 8.62366 5.0525C8.90204 4.95535 9.15207 4.79082 9.35143 4.5736C9.5508 4.35637 9.69332 4.09318 9.76629 3.80751L10.1104 2.39384C10.1358 2.28562 10.2138 2.24078 10.2674 2.23688Z" fill="white"/>
</svg>
